<svg width="575" height="724" viewBox="0 0 575 724" fill="none" xmlns="http://www.w3.org/2000/svg">
<g clip-path="url(#clip0_409_2631)">
<path opacity="0.4" d="M30.9667 691.854L0 674.16L46.334 647.676L77.2862 665.356L30.9667 691.854Z" fill="#D6D8E5"/>
<path d="M31.6046 656.19L5.9585 641.406L31.6046 626.622L57.2362 641.406L31.6046 656.19Z" fill="#D6D8E5"/>
<path d="M31.6046 685.758L5.9585 670.974V641.406L31.6046 656.19V685.758Z" fill="#B1B6C4"/>
<path d="M57.2506 670.974L31.6046 685.758V656.19L57.2506 641.406V670.974Z" fill="#C4C7D6"/>
<path d="M66.0651 661.736C68.2828 662.353 70.6548 662.066 72.6615 660.94C74.2562 660.94 82.8967 657.305 84.071 660.404C85.1003 663.112 81.36 665.631 79.3593 666.109C75.0101 667.166 71.7626 669.338 70.0084 669.714C69.3403 669.954 68.6237 670.026 67.9212 669.925C67.2187 669.824 66.5516 669.553 65.9781 669.135C64.7313 667.832 64.8473 663.285 66.0651 661.736Z" fill="#38226D"/>
<path d="M70.0084 668.889C71.7626 668.513 74.9956 666.341 79.3593 665.284C81.0265 664.878 83.9115 663.054 84.2015 660.867C84.5929 663.372 81.215 665.588 79.3593 666.037C75.0101 667.094 71.7626 669.266 70.0084 669.642C69.3403 669.881 68.6237 669.954 67.9212 669.853C67.2187 669.752 66.5516 669.481 65.9781 669.063C65.7018 668.771 65.5068 668.411 65.4127 668.02C66.0578 668.513 66.8093 668.849 67.6074 668.999C68.4054 669.15 69.2277 669.112 70.0084 668.889V668.889Z" fill="#9C73FF"/>
<path d="M50.4948 653.381C52.7125 653.998 55.0846 653.711 57.0912 652.585C58.6859 652.585 67.2395 648.95 68.4862 652.049C69.5156 654.757 65.7752 657.276 63.789 657.754C59.4398 658.811 56.1924 660.983 54.4382 661.359C53.77 661.599 53.0535 661.671 52.351 661.57C51.6484 661.469 50.9813 661.198 50.4079 660.78C49.1611 659.55 49.2915 655.003 50.4948 653.381Z" fill="#38226D"/>
<path d="M54.4381 660.607C56.1923 660.23 59.4253 658.058 63.789 657.001C65.4562 656.596 68.3412 654.771 68.6312 652.585C69.0226 655.09 65.6447 657.305 63.789 657.754C59.4398 658.811 56.1923 660.983 54.4381 661.359C53.77 661.599 53.0534 661.671 52.3509 661.57C51.6484 661.469 50.9813 661.198 50.4078 660.78C50.1347 660.491 49.9401 660.137 49.8424 659.752C50.4897 660.241 51.2419 660.572 52.0395 660.72C52.837 660.869 53.6582 660.83 54.4381 660.607V660.607Z" fill="#9C73FF"/>
<path d="M26.2405 642.651C32.9819 645.547 39.2883 646.069 44.5219 643.288L49.8859 640.19C50.2049 647.111 50.5093 653.758 50.5093 653.758C50.5093 653.758 54.6266 656.871 57.7581 654.091C57.7581 654.091 58.425 644.389 59.1064 634.832L64.7314 631.589C64.5959 632.099 64.5228 632.624 64.5139 633.152C64.5139 634.962 65.8187 661.939 65.8187 661.939C65.8187 661.939 69.965 664.4 73.1689 661.635C73.1689 661.635 75.3291 630.372 75.822 625.435C76.3729 619.816 70.139 617.051 66.1811 618.484L60.1502 620.729L60.4401 617.253C61.0055 611.635 54.7571 608.87 50.8138 610.303C47.2184 611.621 22.9206 620.714 22.9206 620.714C23.0718 623.05 23.3574 625.376 23.7759 627.679L14.1786 626.868C13.6712 635.831 19.5137 639.697 26.2405 642.651ZM42.9996 627.114L49.422 623.422C49.315 623.874 49.2471 624.334 49.2191 624.797L42.9996 627.114Z" fill="#6889CA"/>
<path d="M8.98846 599.472C8.98846 599.472 9.77133 611.389 11.3371 613.112C12.9028 614.835 18.2089 616.008 18.2089 616.008L22.2827 622.64C22.2827 622.64 18.5568 601.383 17.745 600.92C16.9331 600.457 8.98846 599.472 8.98846 599.472Z" fill="#FFCEA9"/>
<path d="M16.8316 586.223C15.8437 585.762 14.7215 585.677 13.6753 585.984C12.6291 586.29 11.7307 586.967 11.1486 587.888C9.69884 590.364 8.08962 598.893 7.94464 600.341C8.54721 601.154 9.34544 601.801 10.2654 602.224C11.1853 602.647 12.1972 602.831 13.2072 602.759L16.8316 586.223Z" fill="#EDEDED"/>
<path d="M18.2668 586.44C20.3255 586.541 21.8622 587.063 22.1232 586.44C22.3442 585.379 22.4991 584.306 22.5871 583.225C22.3551 582.617 22.1522 581.98 22.1522 581.98C19.5571 580.387 18.7453 577.636 18.3973 574.335C17.8174 568.76 20.8329 563.895 26.3999 563.315C31.648 562.765 35.5044 566.443 36.5482 571.497C37.0991 573.987 38.2009 578.737 36.7077 582.806C35.8813 585.093 34.8085 586.918 33.8082 587.265C32.7696 587.244 31.7334 587.157 30.7057 587.005V587.005C30.7057 587.005 30.4302 588.554 30.2418 589.539C30.0533 590.523 30.1113 591.059 32.0975 592.275C34.0836 593.492 29.111 595.997 25.8635 595.751C22.6161 595.504 18.9627 593.55 17.9624 591.407C16.7591 589.061 16.8461 586.31 18.2668 586.44Z" fill="#FFCEA9"/>
<path d="M70.5449 622.857C70.5437 623.151 70.4654 623.439 70.3179 623.693C70.1703 623.947 69.9587 624.158 69.704 624.305L53.9742 633.37C53.719 633.519 53.4289 633.597 53.1334 633.597C52.8379 633.597 52.5477 633.519 52.2925 633.37L30.2563 620.656C29.9996 620.512 29.7863 620.301 29.6385 620.047C29.4906 619.792 29.4136 619.503 29.4154 619.208V619.092L70.5449 622.857Z" fill="#E5E5E5"/>
<path d="M69.704 624.305L53.9742 633.37C53.7209 633.523 53.4298 633.604 53.1334 633.601V622.857H70.5304C70.5307 623.149 70.4546 623.437 70.3097 623.691C70.1648 623.945 69.956 624.157 69.704 624.305V624.305Z" fill="#E5E5E5"/>
<path d="M53.7277 632.544C53.5502 632.65 53.3473 632.706 53.1406 632.706C52.9338 632.706 52.7309 632.65 52.5534 632.544L29.6329 619.339C29.3429 619.165 29.3429 618.89 29.6329 618.73L46.508 608.985L70.5448 622.857L53.7277 632.544Z" fill="#F4F4F4"/>
<path d="M39.0417 622.857L39.1577 622.915L46.508 627.158L50.5383 624.826L50.6542 624.769L43.188 620.468L39.0417 622.857Z" fill="#BFBFBF"/>
<path d="M39.1577 622.915L46.508 627.158L50.5383 624.826L43.188 620.598L39.1577 622.915Z" fill="#E5E5E5"/>
<path d="M64.3109 623.538L65.3692 624.146C65.4204 624.174 65.4777 624.188 65.5359 624.188C65.5942 624.188 65.6515 624.174 65.7027 624.146L66.7175 623.567C66.819 623.567 66.8335 623.422 66.7175 623.379L65.6592 622.756C65.607 622.731 65.5501 622.719 65.4924 622.719C65.4348 622.719 65.3779 622.731 65.3257 622.756L64.3109 623.35C64.2384 623.407 64.2239 623.494 64.3109 623.538Z" fill="#3A2C6D"/>
<path d="M62.8177 622.64L63.876 623.248C63.9271 623.276 63.9845 623.291 64.0427 623.291C64.101 623.291 64.1583 623.276 64.2094 623.248L65.2243 622.669C65.3257 622.669 65.3257 622.524 65.2243 622.481L64.1659 621.873C64.1148 621.845 64.0575 621.83 63.9992 621.83C63.941 621.83 63.8836 621.845 63.8325 621.873L62.8177 622.452C62.7452 622.539 62.7307 622.64 62.8177 622.64Z" fill="#3A2C6D"/>
<path d="M61.3099 621.815L62.3682 622.423C62.4229 622.448 62.4822 622.46 62.5422 622.46C62.6022 622.46 62.6615 622.448 62.7162 622.423L63.7165 621.844C63.818 621.844 63.8325 621.699 63.7165 621.641L62.6582 621.033C62.6071 621.005 62.5497 620.99 62.4915 620.99C62.4332 620.99 62.3759 621.005 62.3248 621.033L61.3099 621.612C61.2374 621.67 61.2229 621.757 61.3099 621.815Z" fill="#3A2C6D"/>
<path d="M59.8167 620.946L60.875 621.554C60.9272 621.579 60.9841 621.591 61.0417 621.591C61.0994 621.591 61.1563 621.579 61.2085 621.554L62.2233 620.975C62.3248 620.975 62.3393 620.83 62.2233 620.772L61.165 620.164C61.1103 620.139 61.051 620.126 60.991 620.126C60.931 620.126 60.8717 620.139 60.817 620.164L59.8167 620.743C59.7442 620.801 59.7297 620.888 59.8167 620.946Z" fill="#3A2C6D"/>
<path d="M58.3089 620.077L59.3818 620.685C59.4329 620.713 59.4902 620.728 59.5485 620.728C59.6067 620.728 59.6641 620.713 59.7152 620.685L60.7155 620.106C60.817 620.106 60.8315 619.961 60.7155 619.918L59.6572 619.295C59.6051 619.271 59.5481 619.258 59.4905 619.258C59.4329 619.258 59.3759 619.271 59.3238 619.295L58.3089 619.889C58.2365 619.947 58.222 620.034 58.3089 620.077Z" fill="#3A2C6D"/>
<path d="M56.8157 619.208L57.874 619.831C57.9262 619.855 57.9831 619.868 58.0408 619.868C58.0984 619.868 58.1553 619.855 58.2075 619.831L59.2223 619.237C59.3238 619.237 59.3383 619.092 59.2223 619.049L58.164 618.441C58.1103 618.413 58.0506 618.398 57.99 618.398C57.9295 618.398 57.8698 618.413 57.8161 618.441L56.8157 619.02C56.7432 619.078 56.7287 619.165 56.8157 619.208Z" fill="#3A2C6D"/>
<path d="M55.3225 618.296L56.3808 618.904C56.433 618.929 56.4899 618.941 56.5475 618.941C56.6052 618.941 56.6621 618.929 56.7143 618.904L57.7291 618.325C57.8306 618.325 57.8306 618.18 57.7291 618.122L56.6708 617.514C56.6186 617.49 56.5617 617.477 56.504 617.477C56.4464 617.477 56.3895 617.49 56.3373 617.514L55.3225 618.093C55.2355 618.209 55.2355 618.296 55.3225 618.296Z" fill="#3A2C6D"/>
<path d="M53.8147 617.485L54.8731 618.093C54.9242 618.121 54.9815 618.136 55.0398 618.136C55.098 618.136 55.1554 618.121 55.2065 618.093L56.2213 617.514C56.3228 617.514 56.3373 617.369 56.2213 617.326L55.163 616.703C55.1109 616.679 55.0539 616.666 54.9963 616.666C54.9387 616.666 54.8817 616.679 54.8296 616.703L53.8147 617.297C53.7423 617.355 53.7278 617.442 53.8147 617.485Z" fill="#3A2C6D"/>
<path d="M52.3215 616.616L53.3798 617.225C53.4309 617.252 53.4883 617.267 53.5465 617.267C53.6048 617.267 53.6621 617.252 53.7132 617.225L54.7281 616.645C54.8296 616.645 54.8296 616.501 54.7281 616.457L53.6408 615.834C53.5896 615.807 53.5323 615.792 53.474 615.792C53.4158 615.792 53.3585 615.807 53.3073 615.834L52.2925 616.414C52.191 616.486 52.191 616.573 52.3215 616.616Z" fill="#3A2C6D"/>
<path d="M50.8138 615.762L51.8721 616.37C51.9267 616.395 51.986 616.408 52.0461 616.408C52.1061 616.408 52.1654 616.395 52.22 616.37L53.2204 615.791C53.3218 615.791 53.3363 615.646 53.2204 615.588L52.191 614.966C52.1399 614.938 52.0826 614.923 52.0243 614.923C51.9661 614.923 51.9087 614.938 51.8576 614.966L50.8428 615.545C50.7413 615.617 50.7413 615.704 50.8138 615.762Z" fill="#3A2C6D"/>
<path d="M49.2915 614.893L50.3498 615.501C50.402 615.526 50.4589 615.539 50.5165 615.539C50.5742 615.539 50.6311 615.526 50.6833 615.501L51.6981 614.922C51.7996 614.922 51.8141 614.777 51.6981 614.719L50.7413 614.097C50.6866 614.072 50.6273 614.059 50.5673 614.059C50.5073 614.059 50.4479 614.072 50.3933 614.097L49.393 614.676C49.2915 614.748 49.2915 614.835 49.2915 614.893Z" fill="#3A2C6D"/>
<path d="M47.8418 614.024L48.9146 614.633C48.9657 614.66 49.0231 614.675 49.0813 614.675C49.1396 614.675 49.1969 614.66 49.248 614.633L50.2629 614.053C50.3499 614.053 50.3643 613.909 50.2629 613.865L49.2045 613.243C49.1524 613.218 49.0955 613.205 49.0378 613.205C48.9802 613.205 48.9233 613.218 48.8711 613.243L47.8563 613.836C47.7403 613.952 47.7403 613.952 47.8418 614.024Z" fill="#3A2C6D"/>
<path d="M46.392 613.156L47.4503 613.778C47.5025 613.803 47.5594 613.815 47.617 613.815C47.6747 613.815 47.7316 613.803 47.7838 613.778L48.7986 613.185C48.9001 613.185 48.9146 613.04 48.7986 612.996L47.7403 612.388C47.6865 612.36 47.6269 612.346 47.5663 612.346C47.5057 612.346 47.4461 612.36 47.3923 612.388L46.392 612.967C46.247 613.025 46.2325 613.112 46.392 613.156Z" fill="#3A2C6D"/>
<path d="M44.1014 611.881L45.8846 612.909C45.9367 612.934 45.9937 612.947 46.0513 612.947C46.1089 612.947 46.1659 612.934 46.218 612.909L47.2329 612.33C47.3343 612.33 47.3343 612.185 47.2329 612.127L45.4642 611.056C45.412 611.031 45.3551 611.019 45.2974 611.019C45.2398 611.019 45.1829 611.031 45.1307 611.056L44.1159 611.65C44.1007 611.649 44.0854 611.651 44.071 611.656C44.0565 611.661 44.0432 611.668 44.0318 611.678C44.0203 611.689 44.011 611.701 44.0043 611.714C43.9976 611.728 43.9936 611.743 43.9927 611.758C43.9917 611.773 43.9938 611.789 43.9987 611.803C44.0037 611.818 44.0114 611.831 44.0215 611.842C44.0316 611.854 44.0439 611.863 44.0576 611.87C44.0713 611.876 44.0862 611.88 44.1014 611.881V611.881Z" fill="#3A2C6D"/>
<path d="M60.6285 623.089L61.7014 623.697C61.7525 623.725 61.8098 623.74 61.8681 623.74C61.9263 623.74 61.9837 623.725 62.0348 623.697L63.0496 623.118C63.1366 623.118 63.1511 622.973 63.0496 622.93L61.9913 622.321C61.9402 622.294 61.8828 622.279 61.8246 622.279C61.7663 622.279 61.709 622.294 61.6579 622.321L60.643 622.901C60.5561 622.959 60.5561 623.045 60.6285 623.089Z" fill="#3A2C6D"/>
<path d="M59.1353 622.22L60.1936 622.843C60.2458 622.867 60.3027 622.88 60.3603 622.88C60.418 622.88 60.4749 622.867 60.5271 622.843L61.5419 622.249C61.6434 622.249 61.6579 622.104 61.5419 622.061L60.4836 621.453C60.4298 621.425 60.3702 621.41 60.3096 621.41C60.249 621.41 60.1894 621.425 60.1356 621.453L59.1353 622.032C59.0628 622.09 59.0483 622.177 59.1353 622.22Z" fill="#3A2C6D"/>
<path d="M57.6276 621.366L58.6859 621.974C58.7405 621.999 58.7998 622.012 58.8598 622.012C58.9199 622.012 58.9792 621.999 59.0338 621.974L60.0341 621.395C60.1356 621.395 60.1501 621.25 60.0341 621.192L58.9758 620.584C58.9237 620.559 58.8667 620.547 58.8091 620.547C58.7515 620.547 58.6945 620.559 58.6424 620.584L57.6276 621.163C57.5551 621.192 57.5406 621.308 57.6276 621.366Z" fill="#3A2C6D"/>
<path d="M56.1343 620.497L57.1926 621.105C57.2448 621.13 57.3017 621.142 57.3594 621.142C57.417 621.142 57.4739 621.13 57.5261 621.105L58.5409 620.526C58.6424 620.526 58.6424 620.381 58.5409 620.323L57.4826 619.715C57.4304 619.691 57.3735 619.678 57.3159 619.678C57.2582 619.678 57.2013 619.691 57.1492 619.715L56.1343 620.294C56.0473 620.352 56.0473 620.439 56.1343 620.497Z" fill="#3A2C6D"/>
<path d="M54.6411 619.628L55.6994 620.251C55.7516 620.275 55.8085 620.288 55.8661 620.288C55.9238 620.288 55.9807 620.275 56.0329 620.251L57.0477 619.657C57.1492 619.657 57.1637 619.512 57.0477 619.469L55.9894 618.861C55.9356 618.833 55.876 618.818 55.8154 618.818C55.7548 618.818 55.6952 618.833 55.6414 618.861L54.6411 619.44C54.5686 619.498 54.5541 619.585 54.6411 619.628Z" fill="#3A2C6D"/>
<path d="M53.1334 618.774L54.1917 619.382C54.2463 619.407 54.3056 619.42 54.3656 619.42C54.4257 619.42 54.485 619.407 54.5396 619.382L55.5399 618.803C55.6414 618.803 55.6559 618.658 55.5399 618.6L54.4816 617.992C54.4295 617.967 54.3725 617.955 54.3149 617.955C54.2573 617.955 54.2003 617.967 54.1482 617.992L53.1334 618.571C53.0609 618.629 53.0464 618.716 53.1334 618.774Z" fill="#3A2C6D"/>
<path d="M51.6401 617.905L52.6984 618.513C52.7506 618.538 52.8075 618.55 52.8652 618.55C52.9228 618.55 52.9797 618.538 53.0319 618.513L54.0467 617.934C54.1482 617.934 54.1482 617.789 54.0467 617.731L52.9884 617.123C52.9362 617.099 52.8793 617.086 52.8217 617.086C52.764 617.086 52.7071 617.099 52.655 617.123L51.6401 617.702C51.5531 617.76 51.5531 617.847 51.6401 617.905Z" fill="#3A2C6D"/>
<path d="M50.1324 617.036L51.1907 617.644C51.2418 617.672 51.2991 617.687 51.3574 617.687C51.4157 617.687 51.473 617.672 51.5241 617.644L52.539 617.065C52.6404 617.065 52.6549 616.92 52.539 616.877L51.4806 616.254C51.426 616.23 51.3667 616.217 51.3067 616.217C51.2467 616.217 51.1873 616.23 51.1327 616.254L50.1324 616.848C50.0599 616.848 50.0454 616.993 50.1324 617.036Z" fill="#3A2C6D"/>
<path d="M48.6246 616.167L49.6975 616.776C49.7486 616.803 49.8059 616.818 49.8642 616.818C49.9224 616.818 49.9798 616.803 50.0309 616.776L51.0457 616.196C51.1327 616.196 51.1472 616.052 51.0457 616.008L49.9874 615.4C49.9363 615.372 49.8789 615.357 49.8207 615.357C49.7624 615.357 49.7051 615.372 49.654 615.4L48.6391 615.979C48.5521 616.037 48.5522 616.124 48.6246 616.167Z" fill="#3A2C6D"/>
<path d="M47.1314 615.299L48.1897 615.921C48.2419 615.946 48.2988 615.958 48.3564 615.958C48.4141 615.958 48.471 615.946 48.5232 615.921L49.538 615.328C49.6395 615.328 49.654 615.183 49.538 615.139L48.4797 614.531C48.4259 614.503 48.3663 614.489 48.3057 614.489C48.2451 614.489 48.1855 614.503 48.1317 614.531L47.1314 615.11C47.0589 615.168 47.0444 615.255 47.1314 615.299Z" fill="#3A2C6D"/>
<path d="M45.6236 614.444L46.682 615.052C46.7366 615.077 46.7959 615.09 46.8559 615.09C46.9159 615.09 46.9753 615.077 47.0299 615.052L48.0302 614.473C48.1317 614.473 48.1462 614.328 48.0302 614.271L46.9719 613.662C46.9198 613.638 46.8628 613.625 46.8052 613.625C46.7476 613.625 46.6906 613.638 46.6385 613.662L45.6236 614.242C45.5512 614.3 45.5367 614.386 45.6236 614.444Z" fill="#3A2C6D"/>
<path d="M44.1304 613.576L45.1887 614.184C45.2409 614.208 45.2978 614.221 45.3555 614.221C45.4131 614.221 45.47 614.208 45.5222 614.184L46.537 613.604C46.6385 613.604 46.6385 613.46 46.537 613.402L45.4787 612.794C45.4265 612.769 45.3696 612.756 45.312 612.756C45.2543 612.756 45.1974 612.769 45.1452 612.794L44.1304 613.373C44.0434 613.431 44.0434 613.518 44.1304 613.576Z" fill="#3A2C6D"/>
<path d="M62.1363 623.958L63.9195 624.986C63.9716 625.01 64.0286 625.023 64.0862 625.023C64.1438 625.023 64.2008 625.01 64.2529 624.986L65.2677 624.407C65.3692 624.407 65.3837 624.262 65.2677 624.204L63.4845 623.176C63.4299 623.151 63.3706 623.138 63.3106 623.138C63.2506 623.138 63.1912 623.151 63.1366 623.176L62.1363 623.769C62.0638 623.827 62.0493 623.914 62.1363 623.958Z" fill="#3A2C6D"/>
<path d="M43.9999 611.925L45.0583 612.533C45.1453 612.533 45.1453 612.663 45.0583 612.721L43.9855 613.329C43.9397 613.358 43.887 613.372 43.8332 613.372C43.7795 613.372 43.7268 613.358 43.681 613.329H43.594C43.5488 613.308 43.4992 613.296 43.449 613.296C43.3988 613.296 43.3493 613.308 43.3041 613.329L42.1733 613.981C42.1229 614.002 42.0686 614.014 42.0138 614.014C41.959 614.014 41.9047 614.002 41.8543 613.981L41.1874 613.59C41.1004 613.59 41.1004 613.46 41.1874 613.402L42.2457 612.794L42.4632 612.678L42.6227 612.576L42.7822 612.49L43.681 611.968C43.7255 611.933 43.7785 611.911 43.8346 611.903C43.8906 611.896 43.9477 611.903 43.9999 611.925V611.925Z" fill="#3A2C6D"/>
<path d="M58.4974 626.883L59.5557 627.491C59.6069 627.519 59.6642 627.533 59.7225 627.533C59.7807 627.533 59.8381 627.519 59.8892 627.491L60.904 626.912C61.0055 626.912 61.0055 626.767 60.904 626.723L59.8457 626.115C59.7946 626.087 59.7372 626.073 59.679 626.073C59.6207 626.073 59.5634 626.087 59.5123 626.115L58.4974 626.694C58.4249 626.752 58.4104 626.839 58.4974 626.883Z" fill="#3A2C6D"/>
<path d="M57.0042 626.028L58.0625 626.636C58.1147 626.661 58.1716 626.674 58.2292 626.674C58.2869 626.674 58.3438 626.661 58.396 626.636L59.4108 626.057C59.5123 626.057 59.5123 625.912 59.4108 625.855L58.3525 625.246C58.3003 625.222 58.2434 625.209 58.1857 625.209C58.1281 625.209 58.0712 625.222 58.019 625.246L57.0042 625.826C56.9172 625.884 56.9172 625.97 57.0042 626.028Z" fill="#3A2C6D"/>
<path d="M55.4965 625.159L56.5693 625.768C56.6204 625.796 56.6777 625.81 56.736 625.81C56.7943 625.81 56.8516 625.796 56.9027 625.768L57.9175 625.188C58.0045 625.188 58.019 625.044 57.9175 625L56.8592 624.392C56.8081 624.364 56.7508 624.35 56.6925 624.35C56.6342 624.35 56.5769 624.364 56.5258 624.392L55.511 624.986C55.424 625.029 55.424 625.116 55.4965 625.159Z" fill="#3A2C6D"/>
<path d="M42.7676 617.818L43.8259 618.426C43.8797 618.454 43.9393 618.469 43.9999 618.469C44.0605 618.469 44.1202 618.454 44.1739 618.426L45.1742 617.847C45.2757 617.847 45.2902 617.702 45.1742 617.659L44.1159 617.036C44.0637 617.012 44.0068 616.999 43.9492 616.999C43.8915 616.999 43.8346 617.012 43.7825 617.036L42.7676 617.63C42.6951 617.688 42.6806 617.775 42.7676 617.818Z" fill="#3A2C6D"/>
<path d="M41.2744 616.964L42.3327 617.572C42.3849 617.597 42.4418 617.609 42.4994 617.609C42.5571 617.609 42.614 617.597 42.6662 617.572L43.681 616.978C43.7825 616.978 43.797 616.848 43.681 616.79L42.6227 616.182C42.5689 616.154 42.5093 616.139 42.4487 616.139C42.3881 616.139 42.3285 616.154 42.2747 616.182L41.2744 616.761C41.2019 616.848 41.1874 616.848 41.2744 616.964Z" fill="#3A2C6D"/>
<path d="M39.7812 616.095L40.8395 616.703C40.8906 616.731 40.948 616.746 41.0062 616.746C41.0645 616.746 41.1218 616.731 41.1729 616.703L42.1878 616.124C42.2892 616.124 42.3037 615.979 42.1878 615.936L41.1294 615.313C41.0748 615.288 41.0155 615.275 40.9555 615.275C40.8955 615.275 40.8361 615.288 40.7815 615.313L39.7812 615.907C39.7087 615.965 39.6942 616.052 39.7812 616.095Z" fill="#3A2C6D"/>
<path d="M38.2879 615.226L39.3462 615.849C39.3984 615.873 39.4553 615.886 39.513 615.886C39.5706 615.886 39.6275 615.873 39.6797 615.849L40.6945 615.255C40.796 615.255 40.796 615.11 40.6945 615.067L39.6217 614.459C39.5706 614.431 39.5132 614.416 39.455 614.416C39.3967 614.416 39.3394 614.431 39.2883 614.459L38.2734 615.038C38.2154 615.096 38.2009 615.183 38.2879 615.226Z" fill="#3A2C6D"/>
<path d="M53.6408 624.088L55.0905 624.928C55.1452 624.953 55.2045 624.965 55.2645 624.965C55.3245 624.965 55.3838 624.953 55.4385 624.928L56.4388 624.349C56.5403 624.349 56.5548 624.204 56.4388 624.146L54.9891 623.321C54.9379 623.293 54.8806 623.278 54.8223 623.278C54.7641 623.278 54.7067 623.293 54.6556 623.321L53.6408 623.9C53.5538 623.943 53.5393 624.088 53.6408 624.088Z" fill="#3A2C6D"/>
<path d="M44.2609 618.687L45.7106 619.512C45.7617 619.54 45.8191 619.555 45.8773 619.555C45.9356 619.555 45.9929 619.54 46.044 619.512L47.0589 618.933C47.1604 618.933 47.1748 618.788 47.0589 618.73L45.6091 617.905C45.557 617.881 45.5 617.868 45.4424 617.868C45.3848 617.868 45.3278 617.881 45.2757 617.905L44.2609 618.484C44.1884 618.542 44.1739 618.629 44.2609 618.687Z" fill="#3A2C6D"/>
<path d="M46.1455 619.744L53.1913 623.813C53.2435 623.837 53.3004 623.85 53.358 623.85C53.4157 623.85 53.4726 623.837 53.5248 623.813L54.5396 623.234C54.6411 623.234 54.6411 623.089 54.5396 623.031L47.5083 618.977C47.4546 618.949 47.3949 618.934 47.3343 618.934C47.2738 618.934 47.2141 618.949 47.1604 618.977L46.16 619.556C46.0731 619.628 46.0586 619.744 46.1455 619.744Z" fill="#3A2C6D"/>
<path d="M58.7729 623.697L59.8312 624.305C59.8823 624.333 59.9397 624.348 59.9979 624.348C60.0562 624.348 60.1135 624.333 60.1646 624.305L61.1795 623.726C61.2809 623.726 61.2954 623.581 61.1795 623.523L60.1211 622.915C60.0665 622.89 60.0072 622.877 59.9472 622.877C59.8872 622.877 59.8278 622.89 59.7732 622.915L58.7729 623.494C58.7004 623.552 58.6859 623.639 58.7729 623.697Z" fill="#3A2C6D"/>
<path d="M57.2797 622.828L58.338 623.436C58.3891 623.464 58.4464 623.479 58.5047 623.479C58.563 623.479 58.6203 623.464 58.6714 623.436L59.6862 622.857C59.7877 622.857 59.7877 622.712 59.6862 622.669L58.6279 622.061C58.5768 622.033 58.5195 622.018 58.4612 622.018C58.4029 622.018 58.3456 622.033 58.2945 622.061L57.2797 622.64C57.2072 622.64 57.1927 622.785 57.2797 622.828Z" fill="#3A2C6D"/>
<path d="M55.7719 621.974L56.8447 622.582C56.8969 622.607 56.9538 622.619 57.0115 622.619C57.0691 622.619 57.126 622.607 57.1782 622.582L58.193 622.003C58.28 622.003 58.2945 621.858 58.193 621.8L57.1347 621.192C57.0825 621.167 57.0256 621.155 56.968 621.155C56.9103 621.155 56.8534 621.167 56.8012 621.192L55.7864 621.771C55.6994 621.829 55.6994 621.916 55.7719 621.974Z" fill="#3A2C6D"/>
<path d="M54.2787 621.105L55.337 621.713C55.3881 621.741 55.4455 621.756 55.5037 621.756C55.562 621.756 55.6193 621.741 55.6704 621.713L56.6853 621.134C56.7867 621.134 56.8012 620.989 56.6853 620.931L55.6269 620.323C55.5748 620.299 55.5179 620.286 55.4602 620.286C55.4026 620.286 55.3457 620.299 55.2935 620.323L54.2787 620.917C54.2062 620.975 54.1917 621.062 54.2787 621.105Z" fill="#3A2C6D"/>
<path d="M52.7854 620.236L53.8437 620.845C53.8948 620.872 53.9522 620.887 54.0104 620.887C54.0687 620.887 54.126 620.872 54.1772 620.845L55.192 620.251C55.2935 620.251 55.308 620.106 55.192 620.063L54.1337 619.454C54.0799 619.426 54.0203 619.412 53.9597 619.412C53.8991 619.412 53.8394 619.426 53.7857 619.454L52.7854 620.034C52.7129 620.106 52.6984 620.193 52.7854 620.236Z" fill="#3A2C6D"/>
<path d="M51.2922 619.382L52.3505 619.99C52.4026 620.015 52.4596 620.027 52.5172 620.027C52.5748 620.027 52.6318 620.015 52.6839 619.99L53.6988 619.411C53.7857 619.411 53.8002 619.266 53.6988 619.208L52.6404 618.6C52.5883 618.576 52.5314 618.563 52.4737 618.563C52.4161 618.563 52.3591 618.576 52.307 618.6L51.2922 619.179C51.2052 619.237 51.2052 619.324 51.2922 619.382Z" fill="#3A2C6D"/>
<path d="M49.7844 618.513L50.8427 619.121C50.8965 619.149 50.9561 619.164 51.0167 619.164C51.0773 619.164 51.1369 619.149 51.1907 619.121L52.191 618.542C52.2925 618.542 52.307 618.397 52.191 618.354L51.1327 617.731C51.0805 617.707 51.0236 617.694 50.966 617.694C50.9083 617.694 50.8514 617.707 50.7992 617.731L49.7844 618.325C49.7119 618.383 49.6974 618.47 49.7844 618.513Z" fill="#3A2C6D"/>
<path d="M48.2912 617.644L49.2915 618.296C49.3437 618.321 49.4006 618.333 49.4582 618.333C49.5159 618.333 49.5728 618.321 49.6249 618.296L50.6398 617.702C50.7413 617.702 50.7558 617.558 50.6398 617.514L49.5815 616.906C49.5277 616.878 49.4681 616.863 49.4075 616.863C49.3469 616.863 49.2872 616.878 49.2335 616.906L48.2332 617.485C48.2187 617.514 48.2042 617.601 48.2912 617.644Z" fill="#3A2C6D"/>
<path d="M46.798 616.848L47.8563 617.456C47.9084 617.481 47.9654 617.493 48.023 617.493C48.0806 617.493 48.1376 617.481 48.1897 617.456L49.2046 616.877C49.306 616.877 49.306 616.732 49.2046 616.674L48.1462 616.066C48.0941 616.042 48.0372 616.029 47.9795 616.029C47.9219 616.029 47.8649 616.042 47.8128 616.066L46.798 616.645C46.711 616.645 46.711 616.732 46.798 616.848Z" fill="#3A2C6D"/>
<path d="M45.2902 615.921L46.3485 616.529C46.4023 616.557 46.4619 616.572 46.5225 616.572C46.5831 616.572 46.6427 616.557 46.6965 616.529L47.6968 615.95C47.7983 615.95 47.8128 615.805 47.6968 615.762L46.6385 615.139C46.5863 615.115 46.5294 615.102 46.4718 615.102C46.4141 615.102 46.3572 615.115 46.305 615.139L45.2902 615.733C45.2177 615.791 45.2032 615.878 45.2902 615.921Z" fill="#3A2C6D"/>
<path d="M43.797 615.052L44.8553 615.675C44.9075 615.7 44.9644 615.712 45.022 615.712C45.0797 615.712 45.1366 615.7 45.1887 615.675L46.2036 615.081C46.3051 615.081 46.3196 614.937 46.2036 614.893L45.1453 614.285C45.0915 614.257 45.0319 614.243 44.9713 614.243C44.9107 614.243 44.851 614.257 44.7973 614.285L43.797 614.864C43.7245 614.922 43.71 615.009 43.797 615.052Z" fill="#3A2C6D"/>
<path d="M42.3037 614.198L43.362 614.806C43.4142 614.831 43.4711 614.844 43.5287 614.844C43.5864 614.844 43.6433 614.831 43.6955 614.806L44.7103 614.227C44.8118 614.227 44.8118 614.082 44.7103 614.024L43.652 613.416C43.5998 613.392 43.5429 613.379 43.4853 613.379C43.4276 613.379 43.3707 613.392 43.3185 613.416L42.3037 613.995C42.2167 614.053 42.2167 614.14 42.3037 614.198Z" fill="#3A2C6D"/>
<path d="M60.2661 624.566L62.4697 625.826C62.5219 625.85 62.5788 625.863 62.6364 625.863C62.6941 625.863 62.751 625.85 62.8032 625.826L63.8035 625.246C63.905 625.246 63.9195 625.102 63.8035 625.044L61.6144 623.784C61.5632 623.756 61.5059 623.741 61.4476 623.741C61.3894 623.741 61.3321 623.756 61.2809 623.784L60.2661 624.363C60.1936 624.421 60.1791 624.508 60.2661 624.566Z" fill="#3A2C6D"/>
<path d="M58.0625 624.957L59.1208 625.579C59.173 625.604 59.2299 625.617 59.2875 625.617C59.3452 625.617 59.4021 625.604 59.4542 625.579L60.4691 624.986C60.5705 624.986 60.585 624.841 60.4691 624.798L59.4108 624.189C59.3596 624.161 59.3023 624.147 59.244 624.147C59.1858 624.147 59.1284 624.161 59.0773 624.189L58.0625 624.769C57.99 624.826 57.99 624.913 58.0625 624.957Z" fill="#3A2C6D"/>
<path d="M56.5403 624.088L57.5986 624.696C57.6508 624.721 57.7077 624.733 57.7653 624.733C57.823 624.733 57.8799 624.721 57.932 624.696L58.9469 624.117C59.0484 624.117 59.0629 623.972 58.9469 623.914L57.8741 623.306C57.8219 623.282 57.765 623.269 57.7073 623.269C57.6497 623.269 57.5928 623.282 57.5406 623.306L56.5403 623.885C56.5403 623.958 56.5403 624.088 56.5403 624.088Z" fill="#3A2C6D"/>
<path d="M55.0905 623.234L56.1488 623.842C56.2 623.87 56.2573 623.884 56.3156 623.884C56.3738 623.884 56.4311 623.87 56.4823 623.842L57.4971 623.263C57.5841 623.263 57.5986 623.118 57.4971 623.074L56.4388 622.452C56.3866 622.427 56.3297 622.415 56.2721 622.415C56.2144 622.415 56.1575 622.427 56.1053 622.452L55.0905 623.045C54.989 623.103 54.989 623.19 55.0905 623.234Z" fill="#3A2C6D"/>
<path d="M53.6408 622.365L54.6991 622.987C54.7537 623.012 54.8131 623.025 54.8731 623.025C54.9331 623.025 54.9924 623.012 55.047 622.987L56.0474 622.394C56.1488 622.394 56.1633 622.249 56.0474 622.206L54.9891 621.597C54.9379 621.57 54.8806 621.555 54.8223 621.555C54.7641 621.555 54.7067 621.57 54.6556 621.597L53.6408 622.177C53.4958 622.235 53.4813 622.321 53.6408 622.365Z" fill="#3A2C6D"/>
<path d="M52.075 621.511L53.1333 622.119C53.1855 622.143 53.2424 622.156 53.3 622.156C53.3577 622.156 53.4146 622.143 53.4668 622.119L54.4816 621.54C54.5831 621.54 54.5976 621.395 54.4816 621.337L53.4233 620.729C53.3686 620.704 53.3093 620.691 53.2493 620.691C53.1893 620.691 53.13 620.704 53.0753 620.729L52.075 621.308C52.0025 621.366 51.988 621.453 52.075 621.511Z" fill="#3A2C6D"/>
<path d="M50.5818 620.642L51.6401 621.25C51.6912 621.278 51.7486 621.292 51.8068 621.292C51.8651 621.292 51.9224 621.278 51.9735 621.25L52.9884 620.671C53.0898 620.671 53.0898 620.526 52.9884 620.483L51.93 619.874C51.8789 619.846 51.8216 619.832 51.7633 619.832C51.7051 619.832 51.6477 619.846 51.5966 619.874L50.5818 620.454C50.4948 620.511 50.4948 620.598 50.5818 620.642Z" fill="#3A2C6D"/>
<path d="M49.074 619.744L50.1323 620.352C50.187 620.377 50.2463 620.39 50.3063 620.39C50.3663 620.39 50.4256 620.377 50.4803 620.352L51.4806 619.773C51.5821 619.773 51.5966 619.628 51.4806 619.57L50.4223 618.962C50.3712 618.934 50.3138 618.92 50.2556 618.92C50.1973 618.92 50.14 618.934 50.0889 618.962L49.074 619.541C49.0015 619.643 48.987 619.744 49.074 619.744Z" fill="#3A2C6D"/>
<path d="M47.5808 618.919L48.6391 619.527C48.6903 619.555 48.7476 619.569 48.8058 619.569C48.8641 619.569 48.9214 619.555 48.9726 619.527L49.9874 618.948C50.0889 618.948 50.1034 618.803 49.9874 618.745L48.9291 618.137C48.8744 618.112 48.8151 618.099 48.7551 618.099C48.6951 618.099 48.6358 618.112 48.5811 618.137L47.5808 618.73C47.5083 618.774 47.4938 618.861 47.5808 618.919Z" fill="#3A2C6D"/>
<path d="M46.0876 618.05L47.1459 618.658C47.1977 618.684 47.2548 618.697 47.3126 618.697C47.3704 618.697 47.4275 618.684 47.4793 618.658L48.4941 618.064C48.5956 618.064 48.5956 617.919 48.4941 617.876L47.4213 617.268C47.3702 617.24 47.3129 617.225 47.2546 617.225C47.1963 617.225 47.139 617.24 47.0879 617.268L46.0731 617.847C46.0151 617.92 46.0006 618.006 46.0876 618.05Z" fill="#3A2C6D"/>
<path d="M44.5943 617.196L45.6526 617.804C45.7048 617.828 45.7617 617.841 45.8193 617.841C45.877 617.841 45.9339 617.828 45.9861 617.804L47.0009 617.224C47.0879 617.224 47.1024 617.08 47.0009 617.022L45.9426 616.414C45.8904 616.389 45.8335 616.376 45.7758 616.376C45.7182 616.376 45.6613 616.389 45.6091 616.414L44.5943 616.993C44.5073 617.051 44.5073 617.138 44.5943 617.196Z" fill="#3A2C6D"/>
<path d="M43.0866 616.327L44.1449 616.935C44.1986 616.963 44.2583 616.977 44.3189 616.977C44.3795 616.977 44.4391 616.963 44.4929 616.935L45.4932 616.356C45.5947 616.356 45.6092 616.211 45.4932 616.167L44.4349 615.545C44.3827 615.52 44.3258 615.508 44.2681 615.508C44.2105 615.508 44.1536 615.52 44.1014 615.545L43.0866 616.138C43.0141 616.196 42.9996 616.283 43.0866 616.327Z" fill="#3A2C6D"/>
<path d="M39.7377 614.401L42.6372 616.081C42.6893 616.105 42.7462 616.118 42.8039 616.118C42.8615 616.118 42.9185 616.105 42.9706 616.081L43.9854 615.487C44.0869 615.487 44.1014 615.342 43.9854 615.299L41.0859 613.619C41.0322 613.591 40.9725 613.576 40.912 613.576C40.8514 613.576 40.7917 613.591 40.738 613.619L39.7377 614.198C39.6652 614.256 39.6507 614.343 39.7377 614.401Z" fill="#3A2C6D"/>
<path d="M59.5557 625.826L61.0055 626.665C61.0576 626.69 61.1146 626.703 61.1722 626.703C61.2298 626.703 61.2868 626.69 61.3389 626.665L62.3537 626.072C62.4552 626.072 62.4697 625.927 62.3537 625.883L60.904 625.044C60.8518 625.019 60.7949 625.006 60.7373 625.006C60.6796 625.006 60.6227 625.019 60.5706 625.044L59.5557 625.637C59.4398 625.695 59.4398 625.782 59.5557 625.826Z" fill="#3A2C6D"/>
<path d="M70.5457 622.857L46.5089 608.985V590.161L46.6973 589.727L46.8858 589.64C47.1382 589.491 47.4261 589.412 47.7194 589.412C48.0127 589.412 48.3005 589.491 48.553 589.64L70.5457 602.31C70.7967 602.46 71.0047 602.672 71.1495 602.926C71.2943 603.179 71.371 603.466 71.3721 603.758V621.482C71.2126 622.336 71.0386 622.553 70.5457 622.857Z" fill="#E5E5E5"/>
<path d="M68.3421 604.555L46.5089 590.784V590.161L46.6973 589.727L46.8858 589.64C47.1382 589.491 47.4261 589.412 47.7194 589.412C48.0127 589.412 48.3005 589.491 48.553 589.64L70.5457 602.31C70.8163 602.464 71.0337 602.696 71.1691 602.976L68.3421 604.555Z" fill="#E5E5E5"/>
<path d="M47.0589 589.683L70.1389 602.991C70.2603 603.062 70.3614 603.164 70.4324 603.285C70.5035 603.407 70.5422 603.545 70.5449 603.686V622.857L46.508 608.985V590.002C46.5063 589.937 46.5222 589.873 46.554 589.816C46.5858 589.759 46.6323 589.712 46.6887 589.679C46.7451 589.647 46.8092 589.63 46.8744 589.631C46.9395 589.631 47.0033 589.65 47.0589 589.683V589.683Z" fill="#DCEEFF"/>
<path d="M47.0589 589.683L70.1389 602.991C70.2603 603.062 70.3614 603.164 70.4324 603.285C70.5035 603.407 70.5422 603.545 70.5449 603.686V622.857L46.508 608.985V590.002C46.5063 589.937 46.5222 589.873 46.554 589.816C46.5858 589.759 46.6323 589.712 46.6887 589.679C46.7451 589.647 46.8092 589.63 46.8744 589.631C46.9395 589.631 47.0033 589.65 47.0589 589.683V589.683Z" fill="#F4F4F4"/>
<path d="M70.5449 622.857V622.162L46.508 608.305V608.985L70.5449 622.857Z" fill="#DBDBDB"/>
<path d="M47.1314 607.986V590.683L47.4214 590.842V607.841L47.1314 607.986Z" fill="#1E3779"/>
<path d="M47.4213 590.842V607.841L69.7765 620.685V603.729L47.4213 590.842Z" fill="#3A2C6D"/>
<path d="M47.1314 607.986L69.7765 621.033V620.685L47.4214 607.841L47.1314 607.986Z" fill="#031F60"/>
<path d="M21.2533 586.686C20.6734 588.134 22.1377 589.843 26.0085 591.03C29.8794 592.218 30.2273 590.683 30.2273 590.683C32.8091 591.838 35.3257 593.134 37.766 594.563C40.0856 596.185 41.1149 600.891 41.4339 608.826C41.7963 618.006 41.8253 631.618 41.5209 633.978C41.5209 633.978 37.1716 638.322 31.6191 637.844C26.0665 637.366 16.6866 632.472 14.425 628.678C14.425 620.627 15.4253 619.31 14.1206 614.676C11.1341 604.062 9.55386 599.718 11.0181 592.652C12.2069 586.86 13.9176 586.121 16.1937 586.179C17.888 586.26 19.5769 586.429 21.2533 586.686V586.686Z" fill="#F4F4F4"/>
<path d="M50.5818 618.687C46.0151 619.845 44.9423 616.964 44.3479 614.589C42.8981 608.797 42.1152 603.613 41.0279 600.341C39.7522 596.489 38.4184 595.866 36.5337 595.113C34.3446 594.23 32.4454 596.098 33.1703 601.007C34.0744 606.708 35.4763 612.318 37.3601 617.775C38.0269 620.231 39.3149 622.475 41.1004 624.291C43.4635 626.202 47.0154 626.115 52.3795 624.783C55.5255 623.713 58.5799 622.391 61.5129 620.83C62.6727 620.294 63.5716 619.932 65.8622 618.89C68.1313 617.899 70.1226 616.368 71.6612 614.43C72.821 612.736 72.9804 611.939 72.7485 611.534C72.5165 611.128 71.9076 611.157 71.2987 611.867C70.3989 613.065 69.2887 614.091 68.0223 614.893C68.0223 614.893 69.472 613.445 70.2404 612.446C70.9445 611.563 71.5249 610.589 71.9656 609.55C72.386 608.565 71.5307 607.233 70.8783 607.928C70.2259 608.623 69.936 609.376 68.7472 610.824C68.1263 611.579 67.4155 612.255 66.6305 612.837C67.3662 611.849 68.0207 610.803 68.5877 609.709C69.0963 608.832 69.3428 607.827 69.2981 606.813C69.2981 606.307 68.5297 605.698 67.8483 606.669C67.1423 608.051 66.2656 609.34 65.2388 610.506C64.1949 611.592 63.3106 612.214 63.2816 611.954C63.2526 611.693 63.9195 611.056 64.2819 609.811C64.6444 608.565 64.2819 607.219 63.5861 607.074C62.8902 606.929 63.0206 606.958 62.4697 608.145C61.6958 609.353 61.0033 610.611 60.3966 611.91C60.039 613.123 59.3923 614.231 58.5119 615.139C57.4101 616.283 54.931 617.601 50.5818 618.687Z" fill="#FFCEA9"/>
<path d="M34.794 594.332C37.8385 593.883 39.9986 595.258 41.3469 599.863C42.6952 604.468 43.623 608.261 43.623 608.261C42.4196 610.002 40.5928 611.215 38.5199 611.65C34.881 612.533 33.5617 610.795 33.5617 610.795C33.5617 610.795 32.5469 605.959 31.9235 602.672C31.3001 599.385 31.0827 594.882 34.794 594.332Z" fill="#EDEDED"/>
<path d="M36.3597 570.715C36.3597 570.715 41.1729 563.402 30.7347 561.911C23.2105 560.839 18.3683 565.661 17.8174 570.903C17.281 575.913 20.369 581.111 22.5871 583.182C24.7787 583.739 27.0996 583.46 29.0965 582.4C29.2209 581.033 29.2693 579.66 29.2415 578.288C29.2415 578.288 25.5736 570.584 36.3597 570.715Z" fill="#3A2C6D"/>
<path d="M57.2506 663.256V641.29L39.7811 651.47L46.508 665.356L57.2506 663.256Z" fill="#C4C7D6"/>
<path d="M45.7976 642.55L52.4955 638.669L57.2361 641.406L50.2918 645.345L45.7976 642.55Z" fill="#D6D8E5"/>
<path opacity="0.4" d="M321.99 543L239.47 495.419C233.511 491.987 234.265 485.992 241.137 482.025L294.604 451.197L398.681 511.26L345.229 542.088C338.343 546.055 327.948 546.475 321.99 543Z" fill="#D6D8E5"/>
<path d="M328.021 539.51L245.486 491.915C239.542 488.483 240.296 482.503 247.153 478.535L300.62 447.707L404.698 507.712L351.231 538.555C344.359 542.508 333.965 543 328.021 539.51Z" fill="#B1B4C4"/>
<path d="M404.698 507.712V504.57L399.899 507.336L404.698 507.712Z" fill="#B1B4C4"/>
<path d="M241.47 486.253V483.053L246.414 485.094L241.47 486.253Z" fill="#B1B4C4"/>
<path d="M328.021 536.368L245.486 488.772C239.542 485.341 240.296 479.346 247.153 475.393L300.62 444.536L404.698 504.556L351.231 535.383C344.359 539.365 333.965 539.785 328.021 536.368Z" fill="#D6D8E5"/>
<path d="M300.91 444.695L288.022 402.008L393.23 462.288L404.698 504.57L300.91 444.695Z" fill="#9EA1AF"/>
<path d="M401.653 506.322L404.698 504.57L400.131 501.008L401.653 506.322Z" fill="#9EA1AF"/>
<path d="M297.59 446.303L284.702 403.616L389.91 463.896L401.653 506.322L297.59 446.303Z" fill="#B1B4C4"/>
<path d="M564.663 578.259L157.414 343.422C151.702 340.121 147.077 331.288 147.077 323.686V9.05C147.077 1.448 151.702 -2.05616 157.414 1.24528L564.663 236.024C570.375 239.311 575 248.144 575 255.76V570.512C575 578.056 570.375 581.56 564.663 578.259Z" fill="#C4C7D6"/>
<path d="M566.751 581.502L571.274 578.91L569.317 565.545L566.751 581.502Z" fill="#C4C7D6"/>
<path d="M146.338 3.1711L150.774 0.62262L157.153 4.2571C157.153 4.2571 150.354 5.28518 150.194 5.24174C150.035 5.1983 146.338 3.1711 146.338 3.1711Z" fill="#B1B4C4"/>
<path d="M560.923 580.416L153.674 345.58C147.962 342.278 143.322 333.445 143.322 325.843V11.2075C143.322 3.59102 147.962 0.101345 153.674 3.38831L560.908 238.225C566.62 241.526 571.26 250.359 571.26 257.976V572.597C571.274 580.214 566.635 583.703 560.923 580.416Z" fill="#E4E7F2"/>
<path d="M560.213 580.822L152.963 345.985C147.251 342.684 142.626 333.851 142.626 326.249V11.584C142.626 3.982 147.251 0.47784 152.963 3.77928L560.213 238.645C565.925 241.932 570.549 250.765 570.549 258.381V573.017C570.549 580.648 565.925 584.123 560.213 580.822Z" fill="#201D38"/>
<path opacity="0.3" d="M564.953 561.694L147.788 321.137L148.005 12.8727C148.005 9.7161 150.223 8.44186 152.963 9.97674L560.213 244.857C561.656 245.795 562.857 247.061 563.719 248.55C564.58 250.04 565.078 251.711 565.171 253.429L564.953 561.694Z" fill="#3A3756"/>
<path d="M401.03 205.732L373.383 189.789V179.827L401.03 195.77V205.732Z" fill="#A298E2"/>
<path d="M464.935 242.612L406.206 208.715V198.752L464.935 232.65V242.612Z" fill="#F4CE2C"/>
<path d="M401.03 237.602L373.383 221.674V211.712L401.03 227.64V237.602Z" fill="#A298E2"/>
<path d="M425.661 252.053L406.206 240.6V230.637L425.661 242.091V252.053Z" fill="#4D3BFF"/>
<path d="M401.03 253.545L373.383 237.602V227.64L401.03 243.583V253.545Z" fill="#A298E2"/>
<path d="M439.028 275.453L406.206 256.528V246.565L439.028 265.491V275.453Z" fill="#4D3BFF"/>
<path d="M401.03 269.473L373.383 253.545V243.583L401.03 259.525V269.473Z" fill="#A298E2"/>
<path d="M492.77 322.267L406.206 272.47V262.508L492.77 312.319V322.267Z" fill="#FF8657"/>
<path d="M401.03 221.674L373.383 205.732V195.77L401.03 211.712V221.674Z" fill="#A298E2"/>
<path d="M514.038 286.907L406.206 224.657V214.695L514.038 276.944V286.907Z" fill="#A298E2"/>
<path d="M401.03 285.415L373.383 269.473V259.511L401.03 275.453V285.415Z" fill="#A298E2"/>
<path d="M499.483 343.19L406.206 288.413V278.45L499.483 333.228V343.19Z" fill="#C33AFC"/>
<path d="M401.03 317.3L373.383 301.358V291.396L401.03 307.338V317.3Z" fill="#A298E2"/>
<path d="M515.038 383.039L406.206 320.283V310.321L515.038 373.077V383.039Z" fill="#A298E2"/>
<path d="M401.03 333.228L373.383 317.3V307.338L401.03 323.266V333.228Z" fill="#A298E2"/>
<path d="M439.028 355.151L406.206 336.211V326.263L439.028 345.189V355.151Z" fill="#C33AFC"/>
<path d="M401.03 349.171L373.383 333.228V323.266L401.03 339.208V349.171Z" fill="#A298E2"/>
<path d="M473.271 391.003L406.206 352.154V342.191L473.271 381.041V391.003Z" fill="#4D3BFF"/>
<path d="M401.03 301.358L373.383 285.415V275.453L401.03 291.396V301.358Z" fill="#A298E2"/>
<path d="M418.297 311.32L406.206 304.341V294.378L418.297 301.358V311.32Z" fill="#4D3BFF"/>
<path d="M401.03 365.113L373.383 349.171V339.208L401.03 355.151V365.113Z" fill="#A298E2"/>
<path d="M449.495 393.002L406.206 368.096V358.134L449.495 383.039V393.002Z" fill="#C33AFC"/>
<path d="M401.03 396.984L373.383 381.041V371.079L401.03 387.021V396.984Z" fill="#A298E2"/>
<path d="M469.371 435.935L406.206 399.967V390.004L469.371 425.973V435.935Z" fill="#FF8657"/>
<path d="M401.03 412.926L373.383 396.984V387.021L401.03 402.964V412.926Z" fill="#A298E2"/>
<path d="M414.092 420.89L406.206 415.909V405.947L414.092 410.928V420.89Z" fill="#A298E2"/>
<path d="M401.03 428.854L373.383 412.926V402.964L401.03 418.892V428.854Z" fill="#A298E2"/>
<path d="M442.435 452.688L406.206 431.851V421.889L442.435 442.726V452.688Z" fill="#F4CE2C"/>
<path d="M401.03 381.041L373.383 365.113V355.136L401.03 371.079V381.041Z" fill="#A298E2"/>
<path d="M456.613 412.926L406.206 384.024V374.076L456.613 402.964V412.926Z" fill="#4D3BFF"/>
<path d="M222.218 106.124L194.571 90.1814V80.2192L222.218 96.1617V106.124Z" fill="#A298E2"/>
<path d="M344.867 176.844L227.393 109.107V99.1446L344.867 166.882V176.844Z" fill="#C33AFC"/>
<path d="M222.218 137.994L194.571 122.052V112.09L222.218 128.032V137.994Z" fill="#A298E2"/>
<path d="M305.129 185.807L227.393 140.977V131.015L305.129 175.845V185.807Z" fill="#F4CE2C"/>
<path d="M222.218 153.937L194.571 137.994V128.032L222.218 143.975V153.937Z" fill="#A298E2"/>
<path d="M324.135 212.697L227.393 156.92V146.958L324.135 202.734V212.697Z" fill="#FF8657"/>
<path d="M222.218 169.865L194.571 153.937V143.975L222.218 159.903V169.865Z" fill="#A298E2"/>
<path d="M294.763 211.712L227.393 172.862V162.9L294.763 201.75V211.712Z" fill="#A298E2"/>
<path d="M222.218 122.052L194.571 106.109V96.1617L222.218 112.09V122.052Z" fill="#A298E2"/>
<path d="M286.123 158.918L227.393 125.049V115.087L286.123 148.956V158.918Z" fill="#4D3BFF"/>
<path d="M222.218 185.807L194.571 169.865V159.903L222.218 175.845V185.807Z" fill="#A298E2"/>
<path d="M261.941 208.715L227.393 188.79V178.828L261.941 198.752V208.715Z" fill="#C33AFC"/>
<path d="M222.218 217.678L194.571 201.735V191.788L222.218 207.716V217.678Z" fill="#A298E2"/>
<path d="M336.226 283.432L227.393 220.675V210.713L336.226 273.469V283.432Z" fill="#F4CE2C"/>
<path d="M222.218 233.62L194.571 217.678V207.716L222.218 223.658V233.62Z" fill="#A298E2"/>
<path d="M260.216 255.529L227.393 236.603V226.641L260.216 245.566V255.529Z" fill="#FF8657"/>
<path d="M222.218 249.563L194.571 233.62V223.658L222.218 239.601V249.563Z" fill="#A298E2"/>
<path d="M324.135 308.323L227.393 252.546V242.583L324.135 298.375V308.323Z" fill="#A298E2"/>
<path d="M222.218 201.75L194.571 185.807V175.845L222.218 191.788V201.75Z" fill="#A298E2"/>
<path d="M318.945 257.527L227.393 204.733V194.77L318.945 247.565V257.527Z" fill="#4D3BFF"/>
<path d="M222.218 265.491L194.571 249.548V239.601L222.218 255.529V265.491Z" fill="#A298E2"/>
<path d="M239.484 275.453L227.393 268.488V258.526L239.484 265.491V275.453Z" fill="#C33AFC"/>
<path d="M222.218 297.376L194.571 281.433V271.471L222.218 287.414V297.376Z" fill="#A298E2"/>
<path d="M249.85 313.304L227.393 300.359V290.396L249.85 303.342V313.304Z" fill="#F4CE2C"/>
<path d="M222.218 313.304L194.571 297.376V287.414L222.218 303.342V313.304Z" fill="#A298E2"/>
<path d="M286.123 350.17L227.393 316.301V306.339L286.123 340.208V350.17Z" fill="#FF8657"/>
<path d="M222.218 329.246L194.571 313.304V303.342L222.218 319.284V329.246Z" fill="#A298E2"/>
<path d="M320.67 386.022L227.393 332.229V322.267L320.67 376.06V386.022Z" fill="#A298E2"/>
<path d="M222.218 281.433L194.571 265.491V255.529L222.218 271.471V281.433Z" fill="#A298E2"/>
<path d="M344.867 352.154L227.393 284.416V274.454L344.867 342.191V352.154Z" fill="#4D3BFF"/>
<path opacity="0.4" d="M434.563 724C468.063 724 495.22 708.337 495.22 689.016C495.22 669.695 468.063 654.033 434.563 654.033C401.062 654.033 373.905 669.695 373.905 689.016C373.905 708.337 401.062 724 434.563 724Z" fill="#D6D8E5"/>
<path d="M501.179 684.05V590.784L380.11 593.825L380.371 679.836C378.109 690.189 383.85 701.006 397.637 708.955C421.326 722.61 459.73 722.624 483.419 708.955C495.322 702.048 501.237 693.042 501.179 684.05Z" fill="#A6CE28"/>
<path d="M440.521 625.724C474.021 625.724 501.179 610.062 501.179 590.741C501.179 571.42 474.021 555.757 440.521 555.757C407.021 555.757 379.864 571.42 379.864 590.741C379.864 610.062 407.021 625.724 440.521 625.724Z" fill="#BCD64D"/>
<path d="M491.596 590.784C491.596 596.475 486.855 602.455 478.621 607.219C469.632 612.374 457.353 615.559 444.421 616.081C443.131 616.081 441.84 616.167 440.536 616.167C426.183 616.167 412.309 612.895 402.436 607.219C394.202 602.455 389.461 596.475 389.461 590.784C389.461 585.093 394.202 579.113 402.436 574.349C412.309 568.659 426.183 565.386 440.521 565.386C441.826 565.386 443.131 565.386 444.421 565.473C457.353 565.994 469.632 569.18 478.621 574.349C486.855 579.07 491.596 584.992 491.596 590.784Z" fill="#28221C"/>
<path opacity="0.07" d="M491.596 590.784C491.596 596.475 486.855 602.455 478.621 607.219C469.632 612.374 457.353 615.559 444.421 616.081C431.489 615.559 419.195 612.374 410.221 607.219C401.972 602.368 397.232 596.431 397.232 590.784C397.232 585.137 401.958 579.113 410.192 574.349C419.181 569.18 431.475 565.994 444.406 565.473C457.338 565.994 469.618 569.18 478.606 574.349C486.855 579.07 491.596 584.992 491.596 590.784Z" fill="white"/>
<path d="M492.306 633.949L479.432 626.506L473.17 630.126L479.432 633.746V636.121L491.509 643.071L491.146 645.301C492.901 646.749 499.149 658.333 499.149 658.333L499.584 657.928V687.945C499.584 695.822 494.959 693.158 492.988 692.014L479.432 684.194L473.17 687.8L479.432 691.405V693.78L492.988 701.599C494.357 702.42 495.816 703.081 497.337 703.569L496.525 707.333L503.542 703.38H503.643H503.745C506.644 701.672 507.877 697.516 507.877 692.853V661.359C507.935 648.052 497.714 637.612 492.306 633.949Z" fill="#8DA01F"/>
<path d="M486.725 705.263L473.17 697.444V687.8L486.725 695.619C488.696 696.749 493.321 699.427 493.321 691.536V660.187C493.321 652.773 486.609 647.647 485.463 646.836L473.17 639.741V630.126L486.043 637.569C491.465 641.232 501.614 651.687 501.614 664.994V696.372C501.614 704.843 497.743 711.605 486.725 705.263Z" fill="#99B524"/>
<path opacity="0.4" d="M59.9762 538.67C83.0436 538.67 101.743 527.883 101.743 514.576C101.743 501.269 83.0436 490.481 59.9762 490.481C36.9087 490.481 18.2089 501.269 18.2089 514.576C18.2089 527.883 36.9087 538.67 59.9762 538.67Z" fill="#D6D8E5"/>
<path d="M65.9347 534.211C89.0021 534.211 107.702 523.423 107.702 510.116C107.702 496.809 89.0021 486.021 65.9347 486.021C42.8672 486.021 24.1674 496.809 24.1674 510.116C24.1674 523.423 42.8672 534.211 65.9347 534.211Z" fill="#D6D8E5"/>
<path d="M10.0178 427.754L24.6312 511.781H107.6L121.851 428.362L10.0178 427.754Z" fill="#D6D8E5"/>
<path d="M65.9346 458.987C96.8487 458.987 121.909 444.537 121.909 426.711C121.909 408.886 96.8487 394.435 65.9346 394.435C35.0206 394.435 9.95978 408.886 9.95978 426.711C9.95978 444.537 35.0206 458.987 65.9346 458.987Z" fill="#E4E6EF"/>
<path d="M65.9346 451.863C52.22 451.863 39.4332 448.851 29.9228 443.363C21.7607 438.672 17.0925 432.59 17.0925 426.711C17.0925 420.832 21.7607 414.751 29.9228 410.059C39.4187 404.571 52.22 401.559 65.9346 401.559C79.6493 401.559 92.4505 404.571 101.946 410.059C110.109 414.751 114.777 420.832 114.777 426.711C114.777 432.59 110.181 438.744 101.946 443.363C92.4505 448.88 79.7362 451.863 65.9346 451.863Z" fill="#28221C"/>
<path d="M90.015 401.284C90.8072 390.426 89.076 379.531 84.9568 369.452C80.8375 359.372 74.4415 350.379 66.2681 343.176V343.176L66.1086 343.017V343.321C57.9276 350.525 51.5259 359.522 47.4038 369.607C43.2817 379.692 41.5511 390.594 42.3472 401.458L10.3222 398.374C23.8339 449.213 66.2681 444.84 66.2681 444.84V444.739C69.472 444.985 109.05 447.027 121.996 398.258L90.015 401.284Z" fill="#99B524"/>
<path d="M66.2681 444.84C66.2681 444.84 63.3686 405.252 10.1917 378.594C10.1483 378.594 -2.40659 444.362 66.2681 444.84Z" fill="#A6CE28"/>
<path d="M65.9346 444.84C65.9346 444.84 68.8341 405.252 122.011 378.594C122.011 378.594 134.609 444.362 65.9346 444.84Z" fill="#A6CE28"/>
</g>
<defs>
<clipPath id="clip0_409_2631">
<rect width="575" height="724" fill="white"/>
</clipPath>
</defs>
</svg>
